<mxfile host="app.diagrams.net" modified="2022-11-21T03:35:28.234Z" agent="5.0 (Windows NT 10.0; Win64; x64) AppleWebKit/537.36 (KHTML, like Gecko) Chrome/107.0.0.0 Safari/537.36" etag="BC5XVoIsad0E-Kpk6_0S" version="20.5.3" type="github">
  <diagram id="ClX5-AKZbj2Q1a3poFcf" name="페이지-1">
    <mxGraphModel dx="1055" dy="1100" grid="1" gridSize="10" guides="1" tooltips="1" connect="1" arrows="1" fold="1" page="1" pageScale="1" pageWidth="827" pageHeight="1169" math="0" shadow="0">
      <root>
        <mxCell id="0" />
        <mxCell id="1" parent="0" />
        <mxCell id="iXehhSShNFHGnXY0uQxN-70" value="" style="verticalLabelPosition=bottom;verticalAlign=top;html=1;shape=mxgraph.basic.8_point_star;fillStyle=auto;strokeWidth=1;fontSize=16;fillColor=#fa6800;fontColor=#000000;strokeColor=#C73500;" parent="1" vertex="1">
          <mxGeometry x="495" y="870" width="150" height="100" as="geometry" />
        </mxCell>
        <mxCell id="iXehhSShNFHGnXY0uQxN-1" value="" style="shape=image;verticalLabelPosition=bottom;verticalAlign=top;imageAspect=0;aspect=fixed;image=data:image/png,iVBORw0KGgoAAAANSUhEUgAAAOEAAADhCAMAAAAJbSJIAAAAflBMVEX///8AAADp6ens7Oz5+fnv7++7u7vJycnk5OTT09OYmJjy8vLQ0NDh4eH4+PidnZ2urq5TU1MvLy9MTEx8fHyMjIxtbW10dHSDg4PExMQ8PDy0tLSnp6dGRkYsLCwTExMfHx9lZWUMDAw+Pj6ZmZldXV0jIyMSEhJmZmZQUFCwNSJYAAAJ90lEQVR4nO2d2XbivBKFAzY2xgyGBMIUpoQkvP8LntBJTrNLki3ZKknun2+tvutowFJNKpUeHlwQ91bFYHFZHz5OndPHYX1ZDIpVL3bSNz/ddD7tyJkuV13fw2tK9vaomN0vj4PM9yDr0x+8V0zvm8O873uotUhUa1P6JZO2bcp8OzOY35XdZOx70CZM9obzu7J/8z1sbYoa0/um8D10LYavtSfY6ayHvodfSfzUYH5XngIXOcNDwwl+6Y6gP+O88fyuzH1PQ0leZb/o8pL7noqcrHSF7o/zySbNRt1Rlm4m82OpPjkEackl6gG/vqWi/IjTtxKpm3iYQQVbxVBP50S95vLkfFL83dbh2LWYKL7eNqr4w2ir+JITJ+PWZiAd5GOq9cepXEINmMdshHSCL/qKLXsJfIqyPbjbGDWR7CRtBLMXV5LBLU2Nr7HMWlixjNeYTBzZvo7llUlU5Mj6aGswFgf2Wa+leCH+VCG4xWKwor6cF3XO1OJIrQ2qiTkiGkbe1aK4CZuZlLbba0wsBJyayoYRbXDm1yUWRHxz4SdM0au7KIzGhn8+pI36jBdTg9KOz0PFzaOVVq0MxZYhSc1cf87iGgdyttYw0bFraw0bssFx7O1FV3JiJ5lZ8fYgJ0t6zqAexJjfWWzaALILn602/hzCTiTK3q6NPMbGZ1Yb14SoLduHKuR4x0cgHF0d+z8yLpGF9fYr6XFvFLLNe9Y7qAJX0StDDxhldH+0iEqZQ2GhurVnTmgSQfcHDg8nxnOQqtCybfAH5nFw0DVzbdegRubxb/rQh12LohronEsfY5SYqRMF6PpyRYswyuU2dlo46Rt/R7f6ArYhn+UP3ovbjbhz07WjH1IGLB++IyI81GLrRgLGbflEwMhRPyLggp/4rI0ITvltBhGqAIuGw+r+Baxvl1YN2FOcNjHY9y6D3yDjOKW4s44oZ1c/rbPFQrncdsyZTwDq4sLYEQXOKzgFAIg0l+cXkP7CGcuEYM0LY0cUmCFnSsgqiBn+k9/w39+HoIg5syXAB3aZeXK87XjJ2NHytqOaiUi1gCsHnAH3z9uOnhg7osAxNKciBtPC5a0hEHEzvtyzMRzPuDxETG87ZswGwYipS/8Qe+Y728MzSqd5NdAzX7YyxvXZupEBRs2RrRvw0lyaNPTH5cqti6EXt/lteEDLJQJQoLnNx8ihby6rBu8yOr7uhXkETJ1AH64TTsBgZFqmuEhdp5mipuKJEYEkdZ5RM8ZDdo7yFl3o4eD8XgIec3MsIdRIrg+56SY52Rd0Od5MdGmU/oCH7PY/In5CH/mXJFXZ9kckWWU+buphzpD1fUISTN2ntT3Q5ETLd1vI3RkPqYkPwmULu+nmJEne0y091MhWhQ25i+M8be8HegvL3jql12a83e76JAOxZXbkpF2XgVKkT0ZiK+xOLxt5vPi0JEOxE7MlisLv5TUyFiuKWbjcb6HN+qR0NM2PaYRrtx4s0lvoimo8RWGC7p0KZCwUpWm2a4RLqe79Qop4NbmJbBdv5AdQi0e8rv5aN9EtEguAeL+sfoXq/U5nXy95YSVWZ/BjcVPitTCwWopRUultHUjxtlxWAstUxqeSuh+HYGp+UevtD0cTj2d0lDURUFlTSQGXL551Y4xdeSnCAMToX+RT7Cx0vuNIVBHhTVBSXeGHdVEeYekV0hJRnUCK79zSV1bcOxaqwY6Ko+qPDgHtwV96JRX0ZovNEOViPtwsSgrxvgYjRQHBCifsps/zwWQwf57KCnvd4tvaVqKqLGhKEKaanMy0ArSMWWBClNC0yK7b7LVaNPyMs6Br7P6gKIOpRcA78JZe3aX65Pq+dn26VYpDhrYZGwbR3Kzw/H7ZrvldyTf6paEfizBtmEr6bzoFzA+D4IxsE7rFtGy5fky3rZ7eD1nxfBFfK3m/PBdZIHEYG+TdUbIdLJfLp69/g20y6rZ05925c+fOnTt37ty5Ex7xOO/1onJ6vXzcQg8jGqXb5WK61nvh8X09/Xx6W41aEoeK08lxXedxwE5nvz5OUu/pM6XE6bzqzKWa3XwV6KrtT87Vw9fkPAnu+LC/vVSP24jHoCa5MnlU1WCSgTxNFtl5ElBOAHHirE783oSF39PEzJ5wUTP1N8eRi/n9maOfqHGkSPRhYeHe3onfHM7vysCxGZDqWZw2eXf5CFuusUBn52WRpFm3wnGIx90sTYrleaZ6zPIvC2cHAUn5YE6XZZKZ3xccZ8nyUtGyIxOg9JT+ZT5schmylw1UmXx/cJGKMirJJnmpfHVUB3W64hczdsWhfjd9PbF3k7W3leSO/8Bc9Jpe5fo/1o0rtTnIuVKVz1IPOBRyJH+g9svnYJOpfUVwgk0ZxxO5bN0zuY7Ci2/fzDmNjVjxHVmy3+Tvbj9xO3CRXDkxaEbpBHcuHBt5tqP1KW5kvbjKJJTmHlsuKipTgxd3oaK+LM5lVTHKlqjbWhwyiWNxoQq3fTudD9e5vLIXn63dEJZc+Zm6D76PJSFLS4KuL6pdzrKzakST8WRFFIxFYe3rVXdRpq5trCXRFvX3prv4Tr2FQhXi0vAZohVFQuMNI+oJzzFoYTwNdYZ4rdB3Sq84ombSxvrD4s0RnyZv0pqwCUO4syN4cQ22otBWGAd6gmyo/bsLVT1CuZVEb1bVrg7CU0HIBtQrrrlOqWD2+Ii7AI2o1lNhJGTJ+DSXORGxlWuVw6OL3XMxIwJ16GqICPIwtt+CWxJofoS5sCFixm5VRBsQY8RY2FDLwb8tQ2k6QnIG6vLxDF1I6MawHBFr5U5bNKoASj5hWHL0FyJPjT4iKRrE97xDM444TBM3ilhFXor4akBKGRtYlaQOs5/Img5Epel/iUndP3QN+RTahk2Mqcw+Smnrghpjp3uUSWJ24X5C4SPqxjlRVYS7C6/gTtRUGKROcUhOkwg+EaFZ+x5j56Hqwl8wx1XvvAFrdoUQXSsDo2Va70ujGnX9fo056EXpiEVcpKGE19Sg8tY5+sazppCudchBG1rjMcYexHhcPv1ZFzgb/qhepuiS+DoLNQG3VbWjh25F+IuUeuvVBgrEWsP07Sng61e+IYiGXshG91/Q/K7aiLgNw4xeUMzGjL+HkwE2x2jdgZkX0llMGUZvhp5Mfo5QgIW3L/+/eFoRxpFvNXgoXO7o46YN2bu/BRVAuTcEeaT7QG+NC8SQt1hufMOKboNR+g2YpuXS43j7X8M5t68CTM1yYQruZPi+4S9w3bPc1GylKCXC9FT2P/GZ6PBORVWge1EmIDE2N4y67SDCcFTZJRfVCwftomztKa42tYwylS+5dtBCyvwnMY+6jZSdz9xn2A7+2zP89yUNTddrJ6VOn/I2eosojwnHzeut+aYqXUHyBGG7eKk+lU/O1XVUQuV0Fj2+/wFiGnU6qwNy9gAAAABJRU5ErkJggg==;imageBackground=default;fillStyle=hatch;" parent="1" vertex="1">
          <mxGeometry x="375" y="65" width="60" height="60" as="geometry" />
        </mxCell>
        <mxCell id="iXehhSShNFHGnXY0uQxN-2" value="&lt;font style=&quot;font-size: 16px;&quot;&gt;인증 관리자&lt;/font&gt;" style="rounded=0;whiteSpace=wrap;html=1;fillColor=#d5e8d4;strokeColor=#82b366;" parent="1" vertex="1">
          <mxGeometry x="330" y="230" width="150" height="100" as="geometry" />
        </mxCell>
        <mxCell id="iXehhSShNFHGnXY0uQxN-3" value="" style="edgeStyle=orthogonalEdgeStyle;endArrow=classic;html=1;rounded=0;startArrow=none;" parent="1" edge="1">
          <mxGeometry width="50" height="50" relative="1" as="geometry">
            <mxPoint x="350" y="89" as="sourcePoint" />
            <mxPoint x="310" y="259" as="targetPoint" />
            <Array as="points">
              <mxPoint x="340" y="89" />
              <mxPoint x="250" y="89" />
              <mxPoint x="250" y="259" />
            </Array>
          </mxGeometry>
        </mxCell>
        <mxCell id="iXehhSShNFHGnXY0uQxN-4" value="" style="edgeStyle=elbowEdgeStyle;elbow=horizontal;endArrow=classic;html=1;rounded=0;" parent="1" edge="1">
          <mxGeometry width="50" height="50" relative="1" as="geometry">
            <mxPoint x="501" y="265" as="sourcePoint" />
            <mxPoint x="450" y="95" as="targetPoint" />
            <Array as="points">
              <mxPoint x="570" y="175" />
            </Array>
          </mxGeometry>
        </mxCell>
        <mxCell id="iXehhSShNFHGnXY0uQxN-11" value="" style="edgeStyle=orthogonalEdgeStyle;rounded=0;orthogonalLoop=1;jettySize=auto;html=1;" parent="1" edge="1">
          <mxGeometry relative="1" as="geometry">
            <mxPoint x="403.5" y="145" as="sourcePoint" />
            <mxPoint x="403.5" y="225" as="targetPoint" />
            <Array as="points">
              <mxPoint x="403.5" y="195" />
              <mxPoint x="403.5" y="195" />
            </Array>
          </mxGeometry>
        </mxCell>
        <mxCell id="iXehhSShNFHGnXY0uQxN-20" value="&lt;font style=&quot;font-size: 13px;&quot;&gt;(2) 크리덴셜(Credential)요청&lt;/font&gt;" style="text;strokeColor=none;fillColor=none;html=1;fontSize=24;fontStyle=1;verticalAlign=middle;align=center;strokeWidth=6;" parent="1" vertex="1">
          <mxGeometry x="200" y="149" width="100" height="40" as="geometry" />
        </mxCell>
        <mxCell id="iXehhSShNFHGnXY0uQxN-22" value="&lt;font style=&quot;font-size: 13px;&quot;&gt;&amp;nbsp;(1) 리소스요청&lt;/font&gt;" style="text;strokeColor=none;fillColor=none;html=1;fontSize=24;fontStyle=1;verticalAlign=middle;align=center;strokeWidth=6;" parent="1" vertex="1">
          <mxGeometry x="410" y="155" width="100" height="40" as="geometry" />
        </mxCell>
        <mxCell id="iXehhSShNFHGnXY0uQxN-23" value="&lt;font style=&quot;font-size: 13px;&quot;&gt;(3) 크리덴셜(Credential) 제공&lt;/font&gt;" style="text;strokeColor=none;fillColor=none;html=1;fontSize=24;fontStyle=1;verticalAlign=middle;align=center;strokeWidth=6;" parent="1" vertex="1">
          <mxGeometry x="610" y="155" width="100" height="40" as="geometry" />
        </mxCell>
        <mxCell id="iXehhSShNFHGnXY0uQxN-27" value="&lt;font style=&quot;font-size: 13px;&quot;&gt;(3) 크리덴셜(Credential) 제공&lt;/font&gt;" style="text;strokeColor=none;fillColor=none;html=1;fontSize=24;fontStyle=1;verticalAlign=middle;align=center;strokeWidth=6;" parent="1" vertex="1">
          <mxGeometry x="630" y="260" width="100" height="40" as="geometry" />
        </mxCell>
        <mxCell id="iXehhSShNFHGnXY0uQxN-28" value="&lt;font style=&quot;font-size: 13px;&quot;&gt;(4) 크리덴셜 조회&lt;/font&gt;" style="text;strokeColor=none;fillColor=none;html=1;fontSize=24;fontStyle=1;verticalAlign=middle;align=center;strokeWidth=6;" parent="1" vertex="1">
          <mxGeometry x="210" y="305" width="100" height="40" as="geometry" />
        </mxCell>
        <mxCell id="iXehhSShNFHGnXY0uQxN-29" value="&lt;br&gt;크리덴셜&amp;nbsp;&lt;br&gt;저장소" style="strokeWidth=2;html=1;shape=mxgraph.flowchart.database;whiteSpace=wrap;fillStyle=auto;fontSize=16;fillColor=#fad9d5;strokeColor=#ae4132;" parent="1" vertex="1">
          <mxGeometry x="90" y="245" width="90" height="90" as="geometry" />
        </mxCell>
        <mxCell id="iXehhSShNFHGnXY0uQxN-31" value="" style="edgeStyle=orthogonalEdgeStyle;rounded=0;orthogonalLoop=1;jettySize=auto;html=1;fontSize=16;" parent="1" edge="1">
          <mxGeometry relative="1" as="geometry">
            <mxPoint x="310" y="295" as="sourcePoint" />
            <mxPoint x="200" y="295" as="targetPoint" />
            <Array as="points">
              <mxPoint x="230" y="295" />
            </Array>
          </mxGeometry>
        </mxCell>
        <mxCell id="iXehhSShNFHGnXY0uQxN-40" value="(5) 유효한 &lt;br&gt;크리덴셜?" style="rounded=0;whiteSpace=wrap;html=1;fillStyle=auto;strokeWidth=1;fontSize=16;fillColor=#dae8fc;strokeColor=#6c8ebf;" parent="1" vertex="1">
          <mxGeometry x="470" y="390" width="120" height="60" as="geometry" />
        </mxCell>
        <mxCell id="iXehhSShNFHGnXY0uQxN-42" value="" style="endArrow=classic;html=1;rounded=0;fontSize=16;" parent="1" edge="1">
          <mxGeometry width="50" height="50" relative="1" as="geometry">
            <mxPoint x="414" y="419.5" as="sourcePoint" />
            <mxPoint x="414" y="419.5" as="targetPoint" />
            <Array as="points">
              <mxPoint x="454" y="419.5" />
            </Array>
          </mxGeometry>
        </mxCell>
        <mxCell id="iXehhSShNFHGnXY0uQxN-47" value="" style="edgeStyle=orthogonalEdgeStyle;rounded=0;orthogonalLoop=1;jettySize=auto;html=1;fontSize=16;" parent="1" source="iXehhSShNFHGnXY0uQxN-43" edge="1">
          <mxGeometry relative="1" as="geometry">
            <mxPoint x="510" y="500" as="targetPoint" />
          </mxGeometry>
        </mxCell>
        <mxCell id="iXehhSShNFHGnXY0uQxN-43" value="" style="rhombus;whiteSpace=wrap;html=1;fillStyle=auto;strokeWidth=1;fontSize=16;" parent="1" vertex="1">
          <mxGeometry x="365" y="460" width="80" height="80" as="geometry" />
        </mxCell>
        <mxCell id="iXehhSShNFHGnXY0uQxN-45" value="" style="endArrow=classic;html=1;rounded=0;fontSize=16;" parent="1" edge="1">
          <mxGeometry width="50" height="50" relative="1" as="geometry">
            <mxPoint x="405" y="340" as="sourcePoint" />
            <mxPoint x="404.5" y="460" as="targetPoint" />
          </mxGeometry>
        </mxCell>
        <mxCell id="iXehhSShNFHGnXY0uQxN-48" value="&lt;font style=&quot;font-size: 13px;&quot;&gt;(6) No&lt;/font&gt;" style="text;strokeColor=none;fillColor=none;html=1;fontSize=24;fontStyle=1;verticalAlign=middle;align=center;strokeWidth=6;" parent="1" vertex="1">
          <mxGeometry x="430" y="490" width="100" height="40" as="geometry" />
        </mxCell>
        <mxCell id="iXehhSShNFHGnXY0uQxN-55" value="" style="verticalLabelPosition=bottom;verticalAlign=top;html=1;shape=mxgraph.basic.8_point_star;fillStyle=auto;strokeWidth=1;fontSize=16;fillColor=#fa6800;fontColor=#000000;strokeColor=#C73500;" parent="1" vertex="1">
          <mxGeometry x="500" y="450" width="150" height="100" as="geometry" />
        </mxCell>
        <mxCell id="iXehhSShNFHGnXY0uQxN-57" value="&lt;span style=&quot;font-size: 13px;&quot;&gt;Exeption&lt;/span&gt;" style="text;strokeColor=none;fillColor=none;html=1;fontSize=24;fontStyle=1;verticalAlign=middle;align=center;strokeWidth=6;" parent="1" vertex="1">
          <mxGeometry x="520" y="480" width="100" height="40" as="geometry" />
        </mxCell>
        <mxCell id="iXehhSShNFHGnXY0uQxN-58" value="" style="edgeStyle=elbowEdgeStyle;elbow=vertical;endArrow=classic;html=1;rounded=0;fontSize=16;" parent="1" edge="1">
          <mxGeometry width="50" height="50" relative="1" as="geometry">
            <mxPoint x="404.5" y="540" as="sourcePoint" />
            <mxPoint x="404.5" y="630" as="targetPoint" />
            <Array as="points" />
          </mxGeometry>
        </mxCell>
        <mxCell id="iXehhSShNFHGnXY0uQxN-59" value="&lt;font style=&quot;font-size: 13px;&quot;&gt;(7) Yes&lt;/font&gt;" style="text;strokeColor=none;fillColor=none;html=1;fontSize=24;fontStyle=1;verticalAlign=middle;align=center;strokeWidth=6;" parent="1" vertex="1">
          <mxGeometry x="400" y="550" width="100" height="40" as="geometry" />
        </mxCell>
        <mxCell id="iXehhSShNFHGnXY0uQxN-60" value="&lt;span style=&quot;font-size: 16px;&quot;&gt;접근 결정 관리자&lt;/span&gt;" style="rounded=0;whiteSpace=wrap;html=1;fillColor=#d5e8d4;strokeColor=#82b366;" parent="1" vertex="1">
          <mxGeometry x="330" y="650" width="150" height="100" as="geometry" />
        </mxCell>
        <mxCell id="iXehhSShNFHGnXY0uQxN-61" value="" style="endArrow=classic;html=1;rounded=0;fontSize=16;" parent="1" edge="1">
          <mxGeometry width="50" height="50" relative="1" as="geometry">
            <mxPoint x="405" y="760" as="sourcePoint" />
            <mxPoint x="404.5" y="880" as="targetPoint" />
          </mxGeometry>
        </mxCell>
        <mxCell id="iXehhSShNFHGnXY0uQxN-62" value="(8) 적적한 권한&amp;nbsp;&lt;br&gt;가짐?" style="rounded=0;whiteSpace=wrap;html=1;fillStyle=auto;strokeWidth=1;fontSize=16;fillColor=#dae8fc;strokeColor=#6c8ebf;" parent="1" vertex="1">
          <mxGeometry x="476" y="790" width="120" height="60" as="geometry" />
        </mxCell>
        <mxCell id="iXehhSShNFHGnXY0uQxN-63" value="" style="endArrow=classic;html=1;rounded=0;fontSize=16;" parent="1" edge="1">
          <mxGeometry width="50" height="50" relative="1" as="geometry">
            <mxPoint x="420" y="819.5" as="sourcePoint" />
            <mxPoint x="420" y="819.5" as="targetPoint" />
            <Array as="points">
              <mxPoint x="460" y="819.5" />
            </Array>
          </mxGeometry>
        </mxCell>
        <mxCell id="iXehhSShNFHGnXY0uQxN-64" value="" style="edgeStyle=orthogonalEdgeStyle;rounded=0;orthogonalLoop=1;jettySize=auto;html=1;fontSize=16;" parent="1" source="iXehhSShNFHGnXY0uQxN-65" edge="1">
          <mxGeometry relative="1" as="geometry">
            <mxPoint x="510" y="920" as="targetPoint" />
          </mxGeometry>
        </mxCell>
        <mxCell id="iXehhSShNFHGnXY0uQxN-65" value="" style="rhombus;whiteSpace=wrap;html=1;fillStyle=auto;strokeWidth=1;fontSize=16;" parent="1" vertex="1">
          <mxGeometry x="365" y="880" width="80" height="80" as="geometry" />
        </mxCell>
        <mxCell id="iXehhSShNFHGnXY0uQxN-66" value="&lt;font style=&quot;font-size: 13px;&quot;&gt;(9) No&lt;/font&gt;" style="text;strokeColor=none;fillColor=none;html=1;fontSize=24;fontStyle=1;verticalAlign=middle;align=center;strokeWidth=6;" parent="1" vertex="1">
          <mxGeometry x="430" y="910" width="100" height="40" as="geometry" />
        </mxCell>
        <mxCell id="iXehhSShNFHGnXY0uQxN-68" value="" style="edgeStyle=elbowEdgeStyle;elbow=vertical;endArrow=classic;html=1;rounded=0;fontSize=16;" parent="1" edge="1">
          <mxGeometry width="50" height="50" relative="1" as="geometry">
            <mxPoint x="404.5" y="960" as="sourcePoint" />
            <mxPoint x="404.5" y="1050" as="targetPoint" />
            <Array as="points" />
          </mxGeometry>
        </mxCell>
        <mxCell id="iXehhSShNFHGnXY0uQxN-67" value="&lt;span style=&quot;font-size: 13px;&quot;&gt;Exeption&lt;/span&gt;" style="text;strokeColor=none;fillColor=none;html=1;fontSize=24;fontStyle=1;verticalAlign=middle;align=center;strokeWidth=6;" parent="1" vertex="1">
          <mxGeometry x="520" y="900" width="100" height="40" as="geometry" />
        </mxCell>
        <mxCell id="iXehhSShNFHGnXY0uQxN-69" value="&lt;font style=&quot;font-size: 13px;&quot;&gt;(10) Yes&lt;/font&gt;" style="text;strokeColor=none;fillColor=none;html=1;fontSize=24;fontStyle=1;verticalAlign=middle;align=center;strokeWidth=6;" parent="1" vertex="1">
          <mxGeometry x="395" y="970" width="100" height="40" as="geometry" />
        </mxCell>
        <mxCell id="iXehhSShNFHGnXY0uQxN-71" value="" style="strokeWidth=2;html=1;shape=mxgraph.flowchart.document2;whiteSpace=wrap;size=0.25;fillStyle=auto;fontSize=16;fillColor=#ffe6cc;strokeColor=#d79b00;" parent="1" vertex="1">
          <mxGeometry x="355" y="1060" width="100" height="60" as="geometry" />
        </mxCell>
        <mxCell id="iXehhSShNFHGnXY0uQxN-72" value="" style="strokeWidth=2;html=1;shape=mxgraph.flowchart.document2;whiteSpace=wrap;size=0.25;fillStyle=auto;fontSize=16;fillColor=#ffe6cc;strokeColor=#d79b00;" parent="1" vertex="1">
          <mxGeometry x="335" y="1070" width="100" height="60" as="geometry" />
        </mxCell>
        <mxCell id="iXehhSShNFHGnXY0uQxN-73" value="리소스" style="strokeWidth=2;html=1;shape=mxgraph.flowchart.document2;whiteSpace=wrap;size=0.25;fillStyle=auto;fontSize=16;fillColor=#ffe6cc;strokeColor=#d79b00;" parent="1" vertex="1">
          <mxGeometry x="314" y="1080" width="100" height="60" as="geometry" />
        </mxCell>
      </root>
    </mxGraphModel>
  </diagram>
</mxfile>
